HIERARCHY
ROOT Hips
{
	OFFSET -13.091600 -28.302996 44.698402
	CHANNELS 6 Xposition Yposition Zposition Zrotation Xrotation Yrotation
	JOINT Chest
	{
		OFFSET -0.673000 0.623899 5.369202
		CHANNELS 6 Xposition Yposition Zposition Zrotation Xrotation Yrotation
		JOINT Chest2
		{
			OFFSET 0.000000 0.000000 4.415001
			CHANNELS 6 Xposition Yposition Zposition Zrotation Xrotation Yrotation
			JOINT Neck
			{
				OFFSET 0.000000 0.000002 10.273300
				CHANNELS 6 Xposition Yposition Zposition Zrotation Xrotation Yrotation
				JOINT Head
				{
					OFFSET 0.000000 0.000000 2.173897
					CHANNELS 6 Xposition Yposition Zposition Zrotation Xrotation Yrotation
					End Site
					{
						OFFSET 0.000000 0.000000 9.961800
					}
				}
			}
			JOINT LeftCollar
			{
				OFFSET 2.359900 -0.565201 5.928101
				CHANNELS 6 Xposition Yposition Zposition Zrotation Xrotation Yrotation
				JOINT LeftShoulder
				{
					OFFSET 5.443700 0.000000 0.000000
					CHANNELS 6 Xposition Yposition Zposition Zrotation Xrotation Yrotation
					JOINT LeftElbow
					{
						OFFSET 0.000000 0.000000 -10.615799
						CHANNELS 6 Xposition Yposition Zposition Zrotation Xrotation Yrotation
						JOINT LeftWrist
						{
							OFFSET 0.000000 -0.000002 -13.110302
							CHANNELS 6 Xposition Yposition Zposition Zrotation Xrotation Yrotation
							End Site
							{
								OFFSET 0.000000 0.000000 -2.173901
							}
						}
					}
				}
			}
			JOINT RightCollar
			{
				OFFSET -2.636600 -1.718800 6.889698
				CHANNELS 6 Xposition Yposition Zposition Zrotation Xrotation Yrotation
				JOINT RightShoulder
				{
					OFFSET -4.139101 0.000000 0.000000
					CHANNELS 6 Xposition Yposition Zposition Zrotation Xrotation Yrotation
					JOINT RightElbow
					{
						OFFSET 0.000000 0.000000 -10.471802
						CHANNELS 6 Xposition Yposition Zposition Zrotation Xrotation Yrotation
						JOINT RightWrist
						{
							OFFSET 0.000000 0.000000 -12.281898
							CHANNELS 6 Xposition Yposition Zposition Zrotation Xrotation Yrotation
							End Site
							{
								OFFSET 0.000000 -0.000002 -2.173901
							}
						}
					}
				}
			}
		}
	}
	JOINT LeftHip
	{
		OFFSET 2.273400 0.176701 -2.518002
		CHANNELS 6 Xposition Yposition Zposition Zrotation Xrotation Yrotation
		JOINT LeftKnee
		{
			OFFSET 0.000000 -0.000002 -20.456402
			CHANNELS 6 Xposition Yposition Zposition Zrotation Xrotation Yrotation
			JOINT LeftAnkle
			{
				OFFSET 0.000000 -0.000002 -16.635300
				CHANNELS 6 Xposition Yposition Zposition Zrotation Xrotation Yrotation
				End Site
				{
					OFFSET 0.000000 -8.812399 0.000001
				}
			}
		}
	}
	JOINT RightHip
	{
		OFFSET -1.914800 0.018101 -2.699299
		CHANNELS 6 Xposition Yposition Zposition Zrotation Xrotation Yrotation
		JOINT RightKnee
		{
			OFFSET 0.000000 -0.000002 -20.148901
			CHANNELS 6 Xposition Yposition Zposition Zrotation Xrotation Yrotation
			JOINT RightAnkle
			{
				OFFSET 0.000000 -0.000002 -16.838301
				CHANNELS 6 Xposition Yposition Zposition Zrotation Xrotation Yrotation
				End Site
				{
					OFFSET 0.000000 -8.328398 0.000001
				}
			}
		}
	}
}
MOTION
Frames: 9
Frame Time: 0.041667
-24.600304 -31.334499 19.587402 420.406722 19.186263 -3.377427 -0.673001 0.623895 5.369203 -2.181437 25.935617 2.791136 0.000004 0.000003 4.415007 -2.426354 -3.473739 -0.703561 0.000003 0.000001 10.273301 -8.127450 14.075958 1.151382 0.000001 -0.000005 2.173902 0.136271 -0.614356 -1.714743 2.359907 -0.565201 5.928100 -5.591185 5.154610 -8.806686 5.443692 -0.000003 0.000001 -69.088388 -5.184967 -65.108778 -0.000002 -0.000004 -10.615794 515.205978 -176.726159 180.678967 0.000000 -0.000001 -13.110295 -159.115445 -182.297858 193.863718 -2.636595 -1.718798 6.889700 198.362695 -187.933584 172.751453 -4.139089 -0.000001 0.000000 51.348590 -369.649046 62.873653 0.000002 0.000003 -10.471798 17.278415 -3.534753 -1.757027 -0.000003 -0.000002 -12.281900 18.727602 9.848671 12.300314 2.273399 0.176702 -2.518004 -60.323070 -147.149199 -53.340311 0.000000 -0.000009 -20.456394 26.562478 183.097919 -38.165055 -0.000007 -0.000007 -16.635298 79.761146 -3.299344 42.722352 -1.914794 0.018112 -2.699300 61.008677 215.452962 54.521708 -0.000002 -0.000005 -20.148903 168.968034 9.059569 -142.889306 -0.000000 -0.000009 -16.838303 -73.786185 -0.042330 -30.456070
-24.650894 -31.118797 20.644800 420.007866 19.378295 -3.250630 -0.673000 0.623902 5.369215 -2.526594 25.580542 2.961976 0.000004 -0.000000 4.415004 -1.998817 -3.815030 -0.729569 -0.000000 -0.000000 10.273303 -8.397884 14.175134 1.143127 -0.000000 -0.000006 2.173903 0.089414 -0.628670 -1.825711 2.359899 -0.565202 5.928102 -5.467347 5.472747 -9.579947 5.443697 -0.000001 0.000006 -69.923051 -6.410897 -69.971292 0.000001 0.000001 -10.615793 515.802007 -176.899796 180.572539 -0.000001 -0.000006 -13.110294 -160.520456 -181.341195 203.736729 -2.636599 -1.718803 6.889699 198.172133 -188.635126 173.368383 -4.139096 -0.000003 -0.000002 54.269920 -371.171577 68.109103 -0.000008 -0.000004 -10.471803 16.399525 -4.104322 -2.039848 -0.000003 -0.000004 -12.281898 20.190519 6.200382 3.513568 2.273399 0.176715 -2.518005 -62.737644 -145.864331 -56.008552 -0.000002 -0.000003 -20.456398 25.954594 181.379089 -40.859889 -0.000005 -0.000008 -16.635296 79.878161 -2.742934 42.513362 -1.914796 0.018112 -2.699296 63.014977 216.413547 57.356814 0.000001 -0.000000 -20.148903 170.001578 11.665178 -140.625850 -0.000006 -0.000003 -16.838301 -72.349277 0.298507 -29.139916
-24.686001 -30.902498 21.709906 419.258212 19.390677 -2.897277 -0.672997 0.623894 5.369207 -2.510241 25.306151 3.074570 0.000004 -0.000006 4.415003 -1.580398 -4.196722 -0.761076 -0.000003 0.000002 10.273301 -8.684823 14.407859 1.200271 0.000004 -0.000005 2.173890 0.086535 -0.654779 -1.926290 2.359900 -0.565201 5.928096 -5.193280 5.753134 -10.486266 5.443691 0.000003 0.000001 -70.797575 -8.118202 -75.339200 -0.000003 -0.000001 -10.615797 517.340056 -176.578476 180.138221 0.000003 -0.000003 -13.110298 -162.775552 -180.512051 210.366452 -2.636606 -1.718800 6.889702 197.940508 -189.414232 173.956271 -4.139098 0.000009 -0.000001 57.341480 -373.162577 74.058881 0.000002 -0.000006 -10.471794 15.665018 -5.372871 -2.432902 0.000003 -0.000000 -12.281898 22.200333 3.279009 -2.925388 2.273399 0.176695 -2.518005 -64.968575 -144.611115 -58.995704 -0.000004 -0.000003 -20.456396 25.506223 179.867718 -43.504869 -0.000003 -0.000006 -16.635300 80.043547 -2.371994 42.430884 -1.914793 0.018106 -2.699297 65.463497 217.340007 60.584195 -0.000002 -0.000005 -20.148909 171.034029 14.720427 -138.418442 0.000002 0.000005 -16.838301 -70.553525 0.678750 -27.506495
-24.695404 -30.691498 22.763905 418.740866 19.269441 -2.577813 -0.672998 0.623896 5.369207 -2.655674 25.021158 3.138533 0.000001 -0.000001 4.415007 -1.209006 -4.553292 -0.791630 0.000001 -0.000001 10.273304 -8.927325 14.748486 1.272675 0.000003 -0.000009 2.173903 0.074948 -0.691390 -2.030548 2.359903 -0.565200 5.928102 -4.661762 5.963778 -11.646580 5.443698 -0.000002 0.000000 -72.198747 -9.893948 -81.036233 -0.000000 -0.000001 -10.615791 519.378513 -175.727640 179.618949 0.000009 -0.000005 -13.110296 -164.655534 -180.364218 212.721857 -2.636601 -1.718801 6.889702 197.504346 -190.077676 174.878647 -4.139102 -0.000001 0.000004 60.888206 -374.976019 80.334814 -0.000003 -0.000010 -10.471792 14.864582 -7.205040 -2.980580 -0.000001 -0.000002 -12.281893 25.081209 1.506784 -6.466225 2.273396 0.176703 -2.518002 -67.488000 -143.448726 -62.220421 0.000000 -0.000003 -20.456392 25.291209 178.625443 -46.085093 -0.000005 -0.000005 -16.635300 80.284967 -2.222048 42.504226 -1.914798 0.018110 -2.699303 67.746413 218.187251 63.985410 0.000001 -0.000001 -20.148903 171.866711 17.955876 -136.316205 -0.000005 -0.000001 -16.838301 -68.650914 1.110176 -25.796385
-24.674105 -30.491699 23.797306 418.219258 18.969899 -2.195838 -0.672999 0.623899 5.369213 -2.725346 24.785452 3.167508 -0.000001 -0.000003 4.415003 -0.900770 -4.913701 -0.824879 0.000002 -0.000005 10.273301 -9.121395 15.201068 1.289331 -0.000002 -0.000006 2.173902 0.048551 -0.740232 -2.143095 2.359906 -0.565209 5.928099 -2.869941 7.802935 -13.172407 5.443700 -0.000000 -0.000002 -75.093074 -11.586303 -88.878513 0.000003 -0.000003 -10.615792 521.374021 -174.583706 179.065703 0.000002 -0.000007 -13.110301 -165.420201 -180.146663 210.828460 -2.636597 -1.718807 6.889705 196.881432 -190.629337 175.991490 -4.139104 -0.000006 0.000000 64.778136 -375.997324 86.934081 0.000004 -0.000008 -10.471800 14.029290 -9.516557 -3.649628 0.000001 0.000004 -12.281894 28.623497 1.181084 -7.177745 2.273400 0.176708 -2.518000 -70.114699 -142.369160 -65.717007 -0.000006 -0.000001 -20.456394 25.320145 177.787666 -48.572713 -0.000006 -0.000008 -16.635300 80.761502 -2.324854 42.730428 -1.914796 0.018109 -2.699293 70.105506 218.965633 67.619576 0.000001 -0.000001 -20.148907 172.354346 21.163800 -134.292584 -0.000002 -0.000003 -16.838303 -66.798103 1.506640 -24.157836
-24.616402 -30.308395 24.805000 417.719562 18.515471 -1.795167 -0.673001 0.623898 5.369208 -2.856149 24.563194 3.253455 0.000004 0.000002 4.415002 -0.621506 -5.267736 -0.859896 -0.000006 -0.000001 10.273304 -9.158567 15.743248 1.156259 -0.000000 -0.000003 2.173900 -0.018891 -0.804576 -2.235145 2.359892 -0.565203 5.928095 -2.121673 7.027084 -14.793828 5.443701 0.000005 -0.000003 -77.043352 -12.084062 -94.452207 -0.000002 -0.000004 -10.615795 523.517826 -173.297513 178.749766 0.000000 -0.000003 -13.110296 -165.119045 -179.771563 206.143879 -2.636606 -1.718801 6.889701 196.028956 -191.051606 177.499773 -4.139099 0.000009 -0.000005 68.774889 -376.440412 93.664467 -0.000002 0.000000 -10.471798 13.405664 -12.145960 -4.319807 0.000005 -0.000004 -12.281892 32.694835 0.813165 -5.434737 2.273396 0.176710 -2.518005 -72.853434 -141.396787 -69.458338 -0.000005 -0.000002 -20.456400 25.448183 177.110261 -50.994998 -0.000003 -0.000007 -16.635296 81.277393 -2.532905 42.849301 -1.914802 0.018109 -2.699295 72.548931 219.688404 71.475560 0.000001 -0.000008 -20.148903 172.437469 24.193097 -132.255002 -0.000005 0.000001 -16.838303 -65.112043 1.869702 -22.733875
-24.514799 -30.153898 25.790707 417.271283 17.947814 -1.391760 -0.673002 0.623898 5.369210 -3.022604 24.290229 3.369969 0.000000 -0.000000 4.415009 -0.389446 -5.577012 -0.892593 0.000000 -0.000006 10.273309 -9.121230 16.410810 0.914861 0.000000 -0.000001 2.173900 -0.315296 -1.034320 -2.003088 2.359900 -0.565206 5.928108 -1.104227 6.112479 -16.642989 5.443699 0.000004 -0.000002 -79.086248 -12.202930 -100.175816 -0.000008 -0.000003 -10.615793 526.005108 -172.027972 178.583724 -0.000007 -0.000002 -13.110293 -163.879297 -179.137721 201.524335 -2.636600 -1.718807 6.889709 194.864232 -191.241486 179.508682 -4.139099 0.000001 -0.000002 72.533850 -376.662612 100.369200 0.000001 -0.000002 -10.471797 12.910633 -15.169239 -4.918759 0.000003 -0.000000 -12.281895 36.735008 0.467512 -3.136905 2.273396 0.176702 -2.518000 -75.723282 -140.498822 -73.442265 0.000001 -0.000007 -20.456394 25.682172 176.525392 -53.415593 -0.000004 -0.000004 -16.635300 81.778265 -2.795295 42.863586 -1.914799 0.018102 -2.699297 75.070288 220.232524 75.532439 0.000002 -0.000010 -20.148903 172.101752 26.836968 -130.131291 0.000003 0.000001 -16.838299 -63.739838 2.125700 -21.665818
-24.362200 -30.032598 26.759407 416.869449 17.285756 -1.017321 -0.673002 0.623895 5.369201 -3.170294 23.942035 3.522913 0.000002 -0.000000 4.415012 -0.208944 -5.836317 -0.921658 0.000003 -0.000006 10.273310 -9.145587 17.250971 0.642154 -0.000002 -0.000004 2.173888 -0.295073 -1.204968 -2.132055 2.359906 -0.565202 5.928101 0.230839 5.144801 -19.109616 5.443698 0.000003 0.000007 -81.133700 -12.762535 -105.938413 -0.000007 -0.000001 -10.615793 529.340917 -171.093411 178.319328 0.000002 -0.000003 -13.110296 -162.619100 -177.971207 200.098397 -2.636597 -1.718802 6.889700 193.222555 -191.042440 182.153687 -4.139098 -0.000001 -0.000003 76.212637 -377.149085 106.846247 0.000006 0.000004 -10.471798 11.929167 -17.984814 -5.579252 0.000002 -0.000002 -12.281893 39.858795 -0.398739 -1.321643 2.273398 0.176710 -2.518005 -78.765673 -139.600160 -77.667256 -0.000005 -0.000002 -20.456396 26.008447 175.811241 -55.802468 -0.000008 -0.000004 -16.635298 82.105260 -3.175772 42.724944 -1.914801 0.018109 -2.699300 77.614458 220.447060 79.746966 0.000004 -0.000009 -20.148899 171.641056 29.215881 -127.889623 -0.000003 -0.000002 -16.838301 -62.826272 2.514166 -19.991096
-24.155701 -29.951298 27.718704 416.523650 16.604303 -0.638700 -0.672997 0.623893 5.369211 -3.422852 23.394578 3.748980 0.000004 -0.000002 4.415002 -0.040294 -6.072169 -0.949630 -0.000001 0.000002 10.273302 -9.099123 18.234896 0.238952 -0.000001 -0.000004 2.173898 -0.248765 -1.347109 -2.154869 2.359898 -0.565198 5.928102 1.993595 4.186789 -21.434344 5.443695 -0.000002 -0.000003 -83.160026 -12.974478 -111.973500 -0.000006 -0.000003 -10.615798 533.539954 -170.322146 178.324423 0.000003 -0.000008 -13.110293 -161.680536 -176.759763 200.473278 -2.636600 -1.718802 6.889704 190.715602 -192.039921 185.428858 -4.139102 0.000000 0.000004 80.385282 -378.498375 114.825657 -0.000000 0.000002 -10.471796 9.890946 -20.779840 -6.577127 0.000008 0.000001 -12.281895 42.269018 -1.760510 -0.515496 2.273401 0.176701 -2.517998 -81.954613 -138.758408 -82.077215 -0.000006 -0.000003 -20.456396 26.379065 174.931663 -58.156185 -0.000004 -0.000005 -16.635296 82.265189 -3.599286 42.423920 -1.914795 0.018104 -2.699298 80.109417 220.356383 84.011709 0.000007 -0.000004 -20.148907 171.040217 31.396460 -125.583615 0.000002 -0.000002 -16.838305 -61.641863 2.620467 -19.841701
